<?xml version="1.0" standalone="no"?>
<!DOCTYPE svg PUBLIC "-//W3C//DTD SVG 20010904//EN"
 "http://www.w3.org/TR/2001/REC-SVG-20010904/DTD/svg10.dtd">
<svg version="1.0" xmlns="http://www.w3.org/2000/svg"
 width="16.000000pt" height="16.000000pt" viewBox="0 0 16.000000 16.000000"
 preserveAspectRatio="xMidYMid meet">
<metadata>
Created by potrace 1.11, written by Peter Selinger 2001-2013
</metadata>
<g transform="translate(0.000000,16.000000) scale(0.006154,-0.006154)"
fill="#000000" stroke="none">
<path d="M215 2569 c-3 -3 18 -64 44 -135 27 -71 91 -241 141 -379 51 -137
147 -398 215 -580 67 -181 216 -583 330 -893 l209 -562 151 0 151 0 21 57 c12
32 145 391 296 798 151 407 345 931 431 1165 87 234 166 447 177 473 11 27 17
52 14 55 -4 4 -87 7 -185 7 l-179 0 -36 -105 c-44 -127 -113 -325 -165 -475
-50 -144 -220 -636 -275 -795 -24 -69 -80 -231 -125 -360 -45 -129 -91 -263
-103 -298 -13 -38 -24 -57 -28 -50 -4 7 -78 218 -164 468 -86 250 -202 586
-257 745 -55 160 -133 389 -175 510 -41 121 -78 229 -83 240 -4 11 -16 42 -26
70 l-20 50 -177 0 c-98 1 -180 -2 -182 -6z"/>
</g>
</svg>
